<mxfile host="Electron" modified="2023-04-29T08:04:46.567Z" agent="Mozilla/5.0 (Windows NT 10.0; Win64; x64) AppleWebKit/537.36 (KHTML, like Gecko) draw.io/21.1.2 Chrome/106.0.5249.199 Electron/21.4.3 Safari/537.36" etag="HaEOPTrSjQ2GUHFcIOVN" version="21.1.2" type="device">
  <diagram name="Страница 1" id="bTzWgKYMf8cq2p3w6_FB">
    <mxGraphModel dx="1050" dy="629" grid="1" gridSize="10" guides="1" tooltips="1" connect="1" arrows="1" fold="1" page="1" pageScale="1" pageWidth="827" pageHeight="1169" math="0" shadow="0">
      <root>
        <mxCell id="0" />
        <mxCell id="1" parent="0" />
        <mxCell id="qgPXDVPItPyv1TuKx-7t-4" style="edgeStyle=orthogonalEdgeStyle;rounded=0;orthogonalLoop=1;jettySize=auto;html=1;exitX=0.5;exitY=1;exitDx=0;exitDy=0;entryX=0.5;entryY=0;entryDx=0;entryDy=0;" edge="1" parent="1" source="qgPXDVPItPyv1TuKx-7t-1">
          <mxGeometry relative="1" as="geometry">
            <mxPoint x="400" y="150" as="targetPoint" />
          </mxGeometry>
        </mxCell>
        <mxCell id="qgPXDVPItPyv1TuKx-7t-1" value="&lt;font style=&quot;font-size: 24px;&quot;&gt;FilterArray&lt;/font&gt;" style="rounded=1;whiteSpace=wrap;html=1;" vertex="1" parent="1">
          <mxGeometry x="340" y="50" width="120" height="60" as="geometry" />
        </mxCell>
        <mxCell id="qgPXDVPItPyv1TuKx-7t-11" style="edgeStyle=orthogonalEdgeStyle;rounded=0;orthogonalLoop=1;jettySize=auto;html=1;exitX=0.5;exitY=1;exitDx=0;exitDy=0;entryX=0.5;entryY=0;entryDx=0;entryDy=0;" edge="1" parent="1" source="qgPXDVPItPyv1TuKx-7t-9" target="qgPXDVPItPyv1TuKx-7t-10">
          <mxGeometry relative="1" as="geometry" />
        </mxCell>
        <mxCell id="qgPXDVPItPyv1TuKx-7t-9" value="&lt;font style=&quot;font-size: 18px;&quot;&gt;string[] Array1&lt;br&gt;string[] Array2&lt;br&gt;int count = 0&lt;br&gt;&lt;/font&gt;" style="shape=parallelogram;perimeter=parallelogramPerimeter;whiteSpace=wrap;html=1;fixedSize=1;" vertex="1" parent="1">
          <mxGeometry x="320" y="150" width="160" height="120" as="geometry" />
        </mxCell>
        <mxCell id="qgPXDVPItPyv1TuKx-7t-13" style="edgeStyle=orthogonalEdgeStyle;rounded=0;orthogonalLoop=1;jettySize=auto;html=1;exitX=0.5;exitY=1;exitDx=0;exitDy=0;entryX=0.5;entryY=0;entryDx=0;entryDy=0;" edge="1" parent="1" source="qgPXDVPItPyv1TuKx-7t-10" target="qgPXDVPItPyv1TuKx-7t-12">
          <mxGeometry relative="1" as="geometry" />
        </mxCell>
        <mxCell id="qgPXDVPItPyv1TuKx-7t-10" value="&lt;font size=&quot;3&quot;&gt;for int i = 0; i&amp;lt;Array1.Length; i++&lt;/font&gt;" style="shape=hexagon;perimeter=hexagonPerimeter2;whiteSpace=wrap;html=1;fixedSize=1;" vertex="1" parent="1">
          <mxGeometry x="310" y="320" width="180" height="140" as="geometry" />
        </mxCell>
        <mxCell id="qgPXDVPItPyv1TuKx-7t-15" value="&lt;font style=&quot;font-size: 14px;&quot;&gt;Yes&lt;/font&gt;" style="edgeStyle=orthogonalEdgeStyle;rounded=0;orthogonalLoop=1;jettySize=auto;html=1;exitX=0.5;exitY=1;exitDx=0;exitDy=0;entryX=0.5;entryY=0;entryDx=0;entryDy=0;" edge="1" parent="1" source="qgPXDVPItPyv1TuKx-7t-12" target="qgPXDVPItPyv1TuKx-7t-14">
          <mxGeometry x="-0.2" y="20" relative="1" as="geometry">
            <mxPoint as="offset" />
          </mxGeometry>
        </mxCell>
        <mxCell id="qgPXDVPItPyv1TuKx-7t-17" value="&lt;font style=&quot;font-size: 14px;&quot;&gt;No&lt;/font&gt;" style="edgeStyle=orthogonalEdgeStyle;rounded=0;orthogonalLoop=1;jettySize=auto;html=1;exitX=1;exitY=0.5;exitDx=0;exitDy=0;" edge="1" parent="1" source="qgPXDVPItPyv1TuKx-7t-12">
          <mxGeometry x="-0.975" y="20" relative="1" as="geometry">
            <mxPoint x="310" y="390" as="targetPoint" />
            <Array as="points">
              <mxPoint x="570" y="560" />
              <mxPoint x="570" y="740" />
              <mxPoint x="220" y="740" />
              <mxPoint x="220" y="390" />
            </Array>
            <mxPoint as="offset" />
          </mxGeometry>
        </mxCell>
        <mxCell id="qgPXDVPItPyv1TuKx-7t-12" value="&lt;font style=&quot;font-size: 18px;&quot;&gt;Array1[i].Length &amp;lt;= 3&lt;/font&gt;" style="rhombus;whiteSpace=wrap;html=1;" vertex="1" parent="1">
          <mxGeometry x="270" y="510" width="260" height="100" as="geometry" />
        </mxCell>
        <mxCell id="qgPXDVPItPyv1TuKx-7t-16" style="edgeStyle=orthogonalEdgeStyle;rounded=0;orthogonalLoop=1;jettySize=auto;html=1;exitX=0.5;exitY=1;exitDx=0;exitDy=0;entryX=0;entryY=0.5;entryDx=0;entryDy=0;" edge="1" parent="1" source="qgPXDVPItPyv1TuKx-7t-14" target="qgPXDVPItPyv1TuKx-7t-10">
          <mxGeometry relative="1" as="geometry">
            <Array as="points">
              <mxPoint x="400" y="740" />
              <mxPoint x="220" y="740" />
              <mxPoint x="220" y="390" />
            </Array>
          </mxGeometry>
        </mxCell>
        <mxCell id="qgPXDVPItPyv1TuKx-7t-14" value="&lt;font style=&quot;font-size: 18px;&quot;&gt;Array2[count] = Array1[i]&lt;br&gt;count ++&lt;/font&gt;" style="rounded=0;whiteSpace=wrap;html=1;" vertex="1" parent="1">
          <mxGeometry x="300" y="660" width="200" height="60" as="geometry" />
        </mxCell>
      </root>
    </mxGraphModel>
  </diagram>
</mxfile>
